<svg width="172" height="172" viewBox="0 0 172 172" fill="none" xmlns="http://www.w3.org/2000/svg">
<path fill-rule="evenodd" clip-rule="evenodd" d="M0 85.8C0 38.4 38.4 0 85.8 0C133.2 0 171.6 38.4 171.6 85.8C171.6 133.2 133.2 171.6 85.8 171.6C38.4 171.5 0 133.1 0 85.8ZM101.6 43.9C109.5 45.2 117.1 47.6 124.4 50.9C136.9 69.3 143.1 90.1 140.9 114.1C132.5 120.4 123 125.1 112.9 128.2C110.6 125.1 108.6 121.9 106.9 118.5C110.2 117.3 113.4 115.8 116.4 114C116 113.7 115.626 113.4 115.251 113.101L115.25 113.1C114.875 112.8 114.5 112.5 114.1 112.2C96.4 120.6 75.8 120.6 58.1 112.2C57.7 112.5 57.325 112.8 56.95 113.1C56.575 113.4 56.2 113.7 55.8 114C58.8 115.8 61.9 117.3 65.2 118.5C63.5 121.9 61.5 125.1 59.2 128.2C49.1 125.2 39.7 120.4 31.2 114.1C29.3 93.4 33.2 72.5 47.6 51C54.8 47.6 62.5 45.2 70.4 43.9C71.5 45.8 72.5 47.8 73.4 49.9C81.8 48.6 90.3 48.6 98.7 49.9C99.5 48 100.6 45.7 101.6 43.9Z" fill="white"/>
<path d="M67.6 101.3C62.1 101.3 57.7 96.3 57.7 90.2C57.7 84.1 62.1 79 67.6 79C73.2 79 77.6 84 77.6 90.2C77.5 96.3 73.2 101.3 67.6 101.3Z" fill="white"/>
<path d="M104.4 101.3C98.9 101.3 94.5 96.3 94.5 90.2C94.5 84.1 98.9 79 104.4 79C110 79 114.4 84 114.3 90.2C114.2 96.4 109.9 101.3 104.4 101.3Z" fill="white"/>
</svg>
