<svg width="200" height="230" viewBox="0 0 200 230" fill="none" xmlns="http://www.w3.org/2000/svg">
<mask id="mask0_2_50" style="mask-type:alpha" maskUnits="userSpaceOnUse" x="0" y="0" width="200" height="230">
<path d="M35.0481 117.5C61.8306 71.1113 75.2219 47.9169 94.779 45.3422C98.2447 44.8859 101.755 44.8859 105.221 45.3422C124.778 47.9169 138.169 71.1113 164.952 117.5C191.734 163.889 205.126 187.083 197.577 205.307C196.239 208.537 194.484 211.577 192.356 214.35C180.348 230 153.565 230 100 230C46.4349 230 19.6524 230 7.64408 214.35C5.51607 211.577 3.76077 208.537 2.42304 205.307C-5.12571 187.083 8.26556 163.889 35.0481 117.5Z" fill="#0096C7"/>
<path d="M55 15H145V105H55V15Z" fill="#0096C7"/>
<path d="M45 7.5C45 6.10603 45 5.40905 45.1153 4.82946C45.5887 2.44931 47.4493 0.588728 49.8295 0.115288C50.409 0 51.106 0 52.5 0H147.5C148.894 0 149.591 0 150.171 0.115288C152.551 0.588728 154.411 2.44931 154.885 4.82946C155 5.40905 155 6.10603 155 7.5C155 8.89397 155 9.59095 154.885 10.1705C154.411 12.5507 152.551 14.4113 150.171 14.8847C149.591 15 148.894 15 147.5 15H52.5C51.106 15 50.409 15 49.8295 14.8847C47.4493 14.4113 45.5887 12.5507 45.1153 10.1705C45 9.59095 45 8.89397 45 7.5Z" fill="#0096C7"/>
</mask>
<g mask="url(#mask0_2_50)">
<rect width="200" height="230" fill="#0096C7"/>
<rect y="140" width="200" height="90" fill="#00B4D8"/>
<circle cx="93" cy="52" r="15" fill="#90E0EF"/>
<circle cx="84" cy="116" r="10" fill="#00B4D8"/>
<circle cx="113" cy="95" r="10" fill="#48CAE4"/>
</g>
</svg>
