<svg xmlns="http://www.w3.org/2000/svg" width="200" height="230" viewBox="0 0 200 230" fill="none">
<rect width="200" height="230" fill="#1E1E1E"/>
<rect width="1216" height="747" transform="translate(-33 -56)" fill="white"/>
<mask id="mask0_0_1" style="mask-type:alpha" maskUnits="userSpaceOnUse" x="0" y="0" width="200" height="230">
<path d="M7.30851 214.35C19.3168 230 46.0994 230 99.6644 230C153.229 230 180.012 230 192.02 214.35C194.148 211.577 195.904 208.537 197.241 205.307C204.79 187.083 191.399 163.889 164.616 117.5C137.834 71.1113 146 105 144.664 15C146.058 15 149.255 15 149.835 14.8847C152.215 14.4113 154.076 12.5507 154.549 10.1705C154.664 9.59095 154.664 8.89397 154.664 7.5C154.664 6.10604 154.664 5.40905 154.549 4.82946C154.076 2.44931 152.215 0.588729 149.835 0.115289C149.255 0 148.558 0 147.164 0H52.1644C50.7705 0 50.0735 0 49.4939 0.115289C47.1137 0.588729 45.2532 2.44931 44.7797 4.82946C44.6644 5.40905 44.6644 6.10604 44.6644 7.5C44.6644 8.89397 44.6644 9.59095 44.7797 10.1705C45.2532 12.5507 47.1137 14.4113 49.4939 14.8847C50.0735 15 53.2705 15 54.6644 15C54.6328 16.711 54.6048 18.3772 54.5802 20C53.3102 103.741 60.9859 71.9932 34.7125 117.5C7.92999 163.889 -5.46128 187.083 2.08747 205.307C3.4252 208.537 5.1805 211.577 7.30851 214.35Z" fill="white"/>
</mask>
<g mask="url(#mask0_0_1)">
<rect x="-0.335571" width="200" height="230" fill="#0096C7"/>
<rect x="-0.335571" y="140" width="200" height="90" fill="#00B4D8"/>
<circle cx="92.6644" cy="52" r="15" fill="#90E0EF"/>
<circle cx="83.6644" cy="116" r="10" fill="#00B4D8"/>
<circle cx="112.664" cy="95" r="10" fill="#48CAE4"/>
</g>
</svg>